<?xml version="1.0" encoding="UTF-8" standalone="no"?>
<svg
   xmlns:dc="http://purl.org/dc/elements/1.1/"
   xmlns:cc="http://creativecommons.org/ns#"
   xmlns:rdf="http://www.w3.org/1999/02/22-rdf-syntax-ns#"
   xmlns:svg="http://www.w3.org/2000/svg"
   xmlns="http://www.w3.org/2000/svg"
   xmlns:sodipodi="http://sodipodi.sourceforge.net/DTD/sodipodi-0.dtd"
   xmlns:inkscape="http://www.inkscape.org/namespaces/inkscape"
   version="1.1"
   id="svg2"
   xml:space="preserve"
   width="4266.6665"
   height="2666.6667"
   viewBox="0 0 4266.6665 2666.6667"
   sodipodi:docname="10088.eps"><metadata
     id="metadata8"><rdf:RDF><cc:Work
         rdf:about=""><dc:format>image/svg+xml</dc:format><dc:type
           rdf:resource="http://purl.org/dc/dcmitype/StillImage" /></cc:Work></rdf:RDF></metadata><defs
     id="defs6" /><sodipodi:namedview
     pagecolor="#ffffff"
     bordercolor="#666666"
     borderopacity="1"
     objecttolerance="10"
     gridtolerance="10"
     guidetolerance="10"
     inkscape:pageopacity="0"
     inkscape:pageshadow="2"
     inkscape:window-width="640"
     inkscape:window-height="480"
     id="namedview4" /><g
     id="g10"
     inkscape:groupmode="layer"
     inkscape:label="ink_ext_XXXXXX"
     transform="matrix(1.3333333,0,0,-1.3333333,0,2666.6667)"><g
       id="g12"
       transform="scale(0.1)"><path
         d="M 0,0 H 32000 V 20000 H 0 Z"
         style="fill:#ffffff;fill-opacity:1;fill-rule:nonzero;stroke:none"
         id="path14" /><path
         d="m 3369.11,1541.3 9038.99,47 2409.3,0.7 798.2,0.3 2414,0.7 11028.5,3 c 0,0 2522.6,3234.7 -171.9,6306.9 -2793.8,3185.4 -4152.2,591.2 -5010.9,5075 C 21713.7,24261.1 342.297,17692.2 5947.84,8088.1 7966.21,4630 1974.85,6468 3369.11,1541.3"
         style="fill:#ebf3fa;fill-opacity:1;fill-rule:nonzero;stroke:none"
         id="path16" /><path
         d="m 11684.7,3896.8 -48.9,26.8 c -52.2,28.5 -71.4,94.2 -42.8,146.4 l 224.5,410.1 c 28.6,52.2 94.3,71.4 146.5,42.8 l 70,-38.3 c 10.2,-5.6 14,-18.5 8.4,-28.7 -5.6,-10.2 -18.5,-14 -28.7,-8.4 l -70,38.4 c -31.8,17.4 -71.7,5.7 -89.1,-26.1 L 11630,4049.7 c -17.4,-31.7 -5.7,-71.7 26.1,-89.1 l 48.9,-26.8 c 31.7,-17.4 71.7,-5.7 89.1,26.1 l 149,272.2 c 5.6,10.2 18.5,14 28.7,8.4 10.2,-5.6 14,-18.4 8.4,-28.7 l -149.1,-272.2 c -28.6,-52.2 -94.2,-71.4 -146.4,-42.8"
         style="fill:#afcdfb;fill-opacity:1;fill-rule:nonzero;stroke:none"
         id="path18" /><path
         d="m 11476.3,3466.2 -87.6,47.9 c -81.3,44.6 -108.7,151.7 -61,238.9 l 337.6,616.5 c 5.6,10.2 18.5,14 28.7,8.4 10.2,-5.6 14,-18.4 8.4,-28.7 l -337.6,-616.5 c -36.6,-66.7 -16.7,-148.2 44.2,-181.5 l 87.6,-48 c 60.9,-33.4 140.2,-6.2 176.8,60.5 l 384.5,702.3 c 36.6,66.7 16.7,148.2 -44.2,181.5 -10.2,5.6 -14,18.5 -8.4,28.7 5.6,10.2 18.5,14 28.7,8.4 81.3,-44.6 108.7,-151.7 61,-238.9 l -384.6,-702.3 c -47.7,-87.1 -152.7,-121.8 -234.1,-77.2"
         style="fill:#afcdfb;fill-opacity:1;fill-rule:nonzero;stroke:none"
         id="path20" /><path
         d="M 19916.8,6177.6 H 9161.92 c -264.4,0 -478.75,214.3 -478.75,478.7 v 9026.8 c 0,264.4 214.35,478.7 478.75,478.7 H 19916.8 c 264.4,0 478.8,-214.3 478.8,-478.7 V 6656.3 c 0,-264.4 -214.4,-478.7 -478.8,-478.7 m -4614.5,4839.8 c -44.9,0 -81.3,-36.4 -81.3,-81.3 0,-44.9 36.4,-81.3 81.3,-81.3 h 1658.4 c 45,0 81.4,36.4 81.4,81.3 0,44.9 -36.4,81.3 -81.4,81.3 h -1658.4 m -1512.2,0 c -45,0 -81.4,-36.4 -81.4,-81.3 0,-44.9 36.4,-81.3 81.4,-81.3 h 1210.3 c 44.9,0 81.3,36.4 81.3,81.3 0,44.9 -36.4,81.3 -81.3,81.3 h -1210.3 m -4178.73,3157.5 v -3320.1 h 3320.13 v 3320.1 H 9611.37 m 7759.13,-2653.1 c -44.9,0 -81.3,-36.4 -81.3,-81.3 0,-44.9 36.4,-81.4 81.3,-81.4 h 846.8 c 44.9,0 81.3,36.5 81.3,81.4 0,44.9 -36.4,81.3 -81.3,81.3 h -846.8 m -3580.4,0 c -45,0 -81.4,-36.4 -81.4,-81.3 0,-44.9 36.4,-81.4 81.4,-81.4 h 3207.7 c 44.9,0 81.3,36.5 81.3,81.4 0,44.9 -36.4,81.3 -81.3,81.3 h -3207.7 m 2092.3,661.8 c -44.9,0 -81.3,-36.4 -81.3,-81.3 0,-44.9 36.4,-81.3 81.3,-81.3 h 2686 c 44.9,0 81.3,36.4 81.3,81.3 0,44.9 -36.4,81.3 -81.3,81.3 h -2686 m -2092.3,0 c -45,0 -81.4,-36.4 -81.4,-81.3 0,-44.9 36.4,-81.3 81.4,-81.3 h 1642.2 c 45,0 81.4,36.4 81.4,81.3 0,44.9 -36.4,81.3 -81.4,81.3 h -1642.2 m 3580.4,436.1 c -44.9,0 -81.3,-36.4 -81.3,-81.3 0,-44.9 36.4,-81.3 81.3,-81.3 h 846.8 c 44.9,0 81.3,36.4 81.3,81.3 0,44.9 -36.4,81.3 -81.3,81.3 h -846.8 m -2068.2,0 c -44.9,0 -81.3,-36.4 -81.3,-81.3 0,-44.9 36.4,-81.3 81.3,-81.3 h 1658.4 c 45,0 81.4,36.4 81.4,81.3 0,44.9 -36.4,81.3 -81.4,81.3 h -1658.4 m -1512.2,0 c -45,0 -81.4,-36.4 -81.4,-81.3 0,-44.9 36.4,-81.3 81.4,-81.3 h 1210.3 c 44.9,0 81.3,36.4 81.3,81.3 0,44.9 -36.4,81.3 -81.3,81.3 h -1210.3 m 3580.4,504.4 c -44.9,0 -81.3,-36.4 -81.3,-81.3 0,-44.9 36.4,-81.3 81.3,-81.3 h 846.8 c 44.9,0 81.3,36.4 81.3,81.3 0,44.9 -36.4,81.3 -81.3,81.3 h -846.8 m -3580.4,0 c -45,0 -81.4,-36.4 -81.4,-81.3 0,-44.9 36.4,-81.3 81.4,-81.3 h 3207.7 c 44.9,0 81.3,36.4 81.3,81.3 0,44.9 -36.4,81.3 -81.3,81.3 h -3207.7 m 44.1,1054.2 c -69.3,0 -125.5,-56.2 -125.5,-125.4 0,-69.3 56.2,-125.5 125.5,-125.5 h 2640.9 c 69.3,0 125.4,56.2 125.4,125.5 0,69.2 -56.1,125.4 -125.4,125.4 h -2640.9 m 3158,168.3 c -69.3,0 -125.5,-56.2 -125.5,-125.5 0,-69.3 56.2,-125.4 125.5,-125.4 H 19633 c 69.3,0 125.5,56.1 125.5,125.4 0,69.3 -56.2,125.5 -125.5,125.5 h -2640.8"
         style="fill:#f7fafd;fill-opacity:1;fill-rule:nonzero;stroke:none"
         id="path22" /><path
         d="M 20395.6,15053.9 H 8683.17 v 750.5 c 0,197.4 160.02,357.4 357.41,357.4 H 20038.2 c 197.4,0 357.4,-160 357.4,-357.4 v -750.5"
         style="fill:#699dee;fill-opacity:1;fill-rule:nonzero;stroke:none"
         id="path24" /><path
         d="m 9156.82,15614.6 c 0,73.1 59.3,132.4 132.45,132.4 73.15,0 132.45,-59.3 132.45,-132.4 0,-73.2 -59.3,-132.5 -132.45,-132.5 -73.15,0 -132.45,59.3 -132.45,132.5"
         style="fill:#dde7fe;fill-opacity:1;fill-rule:nonzero;stroke:none"
         id="path26" /><path
         d="m 9712.75,15614.6 c 0,73.1 59.31,132.4 132.46,132.4 73.15,0 132.45,-59.3 132.45,-132.4 0,-73.2 -59.3,-132.5 -132.45,-132.5 -73.15,0 -132.46,59.3 -132.46,132.5"
         style="fill:#dde7fe;fill-opacity:1;fill-rule:nonzero;stroke:none"
         id="path28" /><path
         d="m 10268.7,15614.6 c 0,73.1 59.3,132.4 132.4,132.4 73.2,0 132.5,-59.3 132.5,-132.4 0,-73.2 -59.3,-132.5 -132.5,-132.5 -73.1,0 -132.4,59.3 -132.4,132.5"
         style="fill:#dde7fe;fill-opacity:1;fill-rule:nonzero;stroke:none"
         id="path30" /><path
         d="m 9611.37,10854.8 h 3320.13 v 3320.09 H 9611.37 Z"
         style="fill:#e2edfc;fill-opacity:1;fill-rule:nonzero;stroke:none"
         id="path32" /><path
         d="m 16475.1,13927.4 h -2640.9 c -69.3,0 -125.5,56.2 -125.5,125.5 0,69.2 56.2,125.4 125.5,125.4 h 2640.9 c 69.3,0 125.4,-56.2 125.4,-125.4 0,-69.3 -56.1,-125.5 -125.4,-125.5"
         style="fill:#b9caf7;fill-opacity:1;fill-rule:nonzero;stroke:none"
         id="path34" /><path
         d="m 19633,14095.7 h -2640.8 c -69.3,0 -125.5,56.1 -125.5,125.4 0,69.3 56.2,125.5 125.5,125.5 H 19633 c 69.3,0 125.5,-56.2 125.5,-125.5 0,-69.3 -56.2,-125.4 -125.5,-125.4"
         style="fill:#b9caf7;fill-opacity:1;fill-rule:nonzero;stroke:none"
         id="path36" /><path
         d="m 16997.8,12961.5 h -3207.7 c -45,0 -81.4,36.4 -81.4,81.3 0,44.9 36.4,81.3 81.4,81.3 h 3207.7 c 44.9,0 81.3,-36.4 81.3,-81.3 0,-44.9 -36.4,-81.3 -81.3,-81.3"
         style="fill:#e5eefc;fill-opacity:1;fill-rule:nonzero;stroke:none"
         id="path38" /><path
         d="m 18217.3,12961.5 h -846.8 c -44.9,0 -81.3,36.4 -81.3,81.3 0,44.9 36.4,81.3 81.3,81.3 h 846.8 c 44.9,0 81.3,-36.4 81.3,-81.3 0,-44.9 -36.4,-81.3 -81.3,-81.3"
         style="fill:#e5eefc;fill-opacity:1;fill-rule:nonzero;stroke:none"
         id="path40" /><path
         d="m 15000.4,12457.1 h -1210.3 c -45,0 -81.4,36.4 -81.4,81.3 0,44.9 36.4,81.3 81.4,81.3 h 1210.3 c 44.9,0 81.3,-36.4 81.3,-81.3 0,-44.9 -36.4,-81.3 -81.3,-81.3"
         style="fill:#e5eefc;fill-opacity:1;fill-rule:nonzero;stroke:none"
         id="path42" /><path
         d="m 16960.7,12457.1 h -1658.4 c -44.9,0 -81.3,36.4 -81.3,81.3 0,44.9 36.4,81.3 81.3,81.3 h 1658.4 c 45,0 81.4,-36.4 81.4,-81.3 0,-44.9 -36.4,-81.3 -81.4,-81.3"
         style="fill:#e5eefc;fill-opacity:1;fill-rule:nonzero;stroke:none"
         id="path44" /><path
         d="m 18217.3,12457.1 h -846.8 c -44.9,0 -81.3,36.4 -81.3,81.3 0,44.9 36.4,81.3 81.3,81.3 h 846.8 c 44.9,0 81.3,-36.4 81.3,-81.3 0,-44.9 -36.4,-81.3 -81.3,-81.3"
         style="fill:#e5eefc;fill-opacity:1;fill-rule:nonzero;stroke:none"
         id="path46" /><path
         d="m 15432.3,12021 h -1642.2 c -45,0 -81.4,36.4 -81.4,81.3 0,44.9 36.4,81.3 81.4,81.3 h 1642.2 c 45,0 81.4,-36.4 81.4,-81.3 0,-44.9 -36.4,-81.3 -81.4,-81.3"
         style="fill:#e5eefc;fill-opacity:1;fill-rule:nonzero;stroke:none"
         id="path48" /><path
         d="m 18568.4,12021 h -2686 c -44.9,0 -81.3,36.4 -81.3,81.3 0,44.9 36.4,81.3 81.3,81.3 h 2686 c 44.9,0 81.3,-36.4 81.3,-81.3 0,-44.9 -36.4,-81.3 -81.3,-81.3"
         style="fill:#e5eefc;fill-opacity:1;fill-rule:nonzero;stroke:none"
         id="path50" /><path
         d="m 16997.8,11359.1 h -3207.7 c -45,0 -81.4,36.5 -81.4,81.4 0,44.9 36.4,81.3 81.4,81.3 h 3207.7 c 44.9,0 81.3,-36.4 81.3,-81.3 0,-44.9 -36.4,-81.4 -81.3,-81.4"
         style="fill:#e5eefc;fill-opacity:1;fill-rule:nonzero;stroke:none"
         id="path52" /><path
         d="m 18217.3,11359.1 h -846.8 c -44.9,0 -81.3,36.5 -81.3,81.4 0,44.9 36.4,81.3 81.3,81.3 h 846.8 c 44.9,0 81.3,-36.4 81.3,-81.3 0,-44.9 -36.4,-81.4 -81.3,-81.4"
         style="fill:#e5eefc;fill-opacity:1;fill-rule:nonzero;stroke:none"
         id="path54" /><path
         d="m 15000.4,10854.8 h -1210.3 c -45,0 -81.4,36.4 -81.4,81.3 0,44.9 36.4,81.3 81.4,81.3 h 1210.3 c 44.9,0 81.3,-36.4 81.3,-81.3 0,-44.9 -36.4,-81.3 -81.3,-81.3"
         style="fill:#e5eefc;fill-opacity:1;fill-rule:nonzero;stroke:none"
         id="path56" /><path
         d="m 16960.7,10854.8 h -1658.4 c -44.9,0 -81.3,36.4 -81.3,81.3 0,44.9 36.4,81.3 81.3,81.3 h 1658.4 c 45,0 81.4,-36.4 81.4,-81.3 0,-44.9 -36.4,-81.3 -81.4,-81.3"
         style="fill:#e5eefc;fill-opacity:1;fill-rule:nonzero;stroke:none"
         id="path58" /><path
         d="m 11629.3,12395.7 -363.9,842.1 -360.9,-842.1 z m -529.3,1284.2 h 342.9 l 926.3,-2120.4 h -391 l -213.5,508.3 h -995.6 l -216.5,-508.3 h -379 l 926.4,2120.4"
         style="fill:#bdd1f9;fill-opacity:1;fill-rule:nonzero;stroke:none"
         id="path60" /><path
         d="M 11466,9827.9 H 9611.37 V 10186 H 11466 v -358.1"
         style="fill:#f99746;fill-opacity:1;fill-rule:nonzero;stroke:none"
         id="path62" /><path
         d="M 11466,9469.9 H 9611.37 v 358 H 11466 v -358"
         style="fill:#ed7d2b;fill-opacity:1;fill-rule:nonzero;stroke:none"
         id="path64" /><path
         d="M 11466,9111.9 H 9611.37 v 358 H 11466 v -358"
         style="fill:#474fea;fill-opacity:1;fill-rule:nonzero;stroke:none"
         id="path66" /><path
         d="m 12832.5,9983.3 h -1020.4 c -42.7,0 -77.4,34.6 -77.4,77.3 0,42.7 34.7,77.3 77.4,77.3 h 1020.4 c 42.7,0 77.3,-34.6 77.3,-77.3 0,-42.7 -34.6,-77.3 -77.3,-77.3"
         style="fill:#bdd1f9;fill-opacity:1;fill-rule:nonzero;stroke:none"
         id="path68" /><path
         d="m 12488.7,9710.8 h -676.6 c -42.7,0 -77.4,34.6 -77.4,77.3 0,42.7 34.7,77.3 77.4,77.3 h 676.6 c 42.7,0 77.3,-34.6 77.3,-77.3 0,-42.7 -34.6,-77.3 -77.3,-77.3"
         style="fill:#bdd1f9;fill-opacity:1;fill-rule:nonzero;stroke:none"
         id="path70" /><path
         d="M 11466,7603.2 H 9611.37 v 731.6 H 11466 v -731.6"
         style="fill:#f99746;fill-opacity:1;fill-rule:nonzero;stroke:none"
         id="path72" /><path
         d="M 11466,7260.6 H 9611.37 v 523.2 H 11466 v -523.2"
         style="fill:#b5453c;fill-opacity:1;fill-rule:nonzero;stroke:none"
         id="path74" /><path
         d="m 9611.37,8334.8 665.33,-558.9 -665.33,-515.3 z"
         style="fill:#474fea;fill-opacity:1;fill-rule:nonzero;stroke:none"
         id="path76" /><path
         d="m 12832.5,8132.1 h -1020.4 c -42.7,0 -77.4,34.6 -77.4,77.3 0,42.7 34.7,77.3 77.4,77.3 h 1020.4 c 42.7,0 77.3,-34.6 77.3,-77.3 0,-42.7 -34.6,-77.3 -77.3,-77.3"
         style="fill:#bdd1f9;fill-opacity:1;fill-rule:nonzero;stroke:none"
         id="path78" /><path
         d="m 12488.7,7859.5 h -676.6 c -42.7,0 -77.4,34.6 -77.4,77.3 0,42.7 34.7,77.4 77.4,77.4 h 676.6 c 42.7,0 77.3,-34.7 77.3,-77.4 0,-42.7 -34.6,-77.3 -77.3,-77.3"
         style="fill:#bdd1f9;fill-opacity:1;fill-rule:nonzero;stroke:none"
         id="path80" /><path
         d="m 20513.8,15257.6 c 0,0 48.3,-575.6 -82.8,-566.9 -131.2,8.7 -390.2,262.1 -912.7,220.9 -522.6,-41.2 -1162,-155.5 -1548.5,528.4 -386.5,684 494.3,880.8 494.3,880.8 l 2049.7,-1063.2"
         style="fill:#233862;fill-opacity:1;fill-rule:nonzero;stroke:none"
         id="path82" /><path
         d="m 19402.9,15299.8 2633.3,-216.5 54.7,117.1 -2524.5,1863.5 -2550.1,298 -49,-104.9 2435.6,-1957.2"
         style="fill:#2b478b;fill-opacity:1;fill-rule:nonzero;stroke:none"
         id="path84" /><path
         d="m 21195,13316.7 c -15.6,54.2 -72.1,85.6 -126.3,70.1 -54.2,-15.6 -85.5,-72.1 -70,-126.3 15.5,-54.2 72,-85.5 126.2,-70.1 54.2,15.6 85.6,72.1 70.1,126.3"
         style="fill:#f99746;fill-opacity:1;fill-rule:nonzero;stroke:none"
         id="path86" /><path
         d="m 21107.2,13288.4 c 105.6,8.2 130.3,-952.8 130.3,-952.8 0,0 -68.9,-32.4 -102.7,-24.8 -33.9,7.6 -51.2,137.4 -51.2,137.4 l -3.2,-136.1 c 0,0 -115.9,-4 -156,24.2 0,0 15.7,939 182.8,952.1"
         style="fill:#f99746;fill-opacity:1;fill-rule:nonzero;stroke:none"
         id="path88" /><path
         d="m 21141.6,13266.7 -19.1,2099.6 -13.6,10.2 -1375.4,1017.4 -49.4,-66.8 1361.7,-1007.3 30.8,-2049.5 65,-3.6"
         style="fill:#f99746;fill-opacity:1;fill-rule:nonzero;stroke:none"
         id="path90" /><path
         d="m 22916.2,3361.2 h -5784.8 v 2197.9 h 5804.1 c 469.1,0 849.4,-380.3 849.4,-849.4 v -479.8 c 0,-479.8 -388.9,-868.7 -868.7,-868.7"
         style="fill:#fcecdb;fill-opacity:1;fill-rule:nonzero;stroke:none"
         id="path92" /><path
         d="m 28747.3,4654.8 v -330.6 c 0,-176.7 -44.4,-342.2 -122,-484.4 -155.9,-286.2 -445.8,-478.5 -777.7,-478.5 H 16953.2 c -72.1,0 -130.5,62.5 -130.5,139.5 v 49.5 c 0,77.1 58.4,139.6 130.5,139.6 h 6641.1 c 35.5,46.3 66.8,96.5 93.2,149.9 62.2,125.4 97.4,268.4 97.4,420.2 v 420.3 c 0,77.3 -9.3,152.4 -26.9,223.7 -29.8,121 -83,231.8 -154,326.4 h -6650.8 c -72.1,0 -130.5,62.5 -130.5,139.7 v 49.4 c 0,77.1 58.4,139.6 130.5,139.6 h 10949.3 c 385.8,0 711.2,-276.8 812.2,-655.1 21.3,-79.2 32.6,-162.8 32.6,-249.2"
         style="fill:#699dee;fill-opacity:1;fill-rule:nonzero;stroke:none"
         id="path94" /><path
         d="M 28714.7,4904 H 23758 c -29.8,121 -83,231.8 -154,326.4 h -6650.8 c -72.1,0 -130.5,62.5 -130.5,139.7 v 49.4 c 0,77.1 58.4,139.6 130.5,139.6 h 10949.3 c 385.8,0 711.2,-276.8 812.2,-655.1"
         style="fill:#548ee2;fill-opacity:1;fill-rule:nonzero;stroke:none"
         id="path96" /><path
         d="m 17131.4,4460.2 806.6,-37 -806.6,-22.2 z"
         style="fill:#f4d2b8;fill-opacity:1;fill-rule:nonzero;stroke:none"
         id="path98" /><path
         d="m 17131.4,4115.3 1919.1,-36.9 -1919.1,-22.3 z"
         style="fill:#f4d2b8;fill-opacity:1;fill-rule:nonzero;stroke:none"
         id="path100" /><path
         d="m 16286.1,1656.3 h 5678.7 V 3365.8 H 16236 c -425.4,0 -770.3,-344.9 -770.3,-770.3 v -118.9 c 0,-453 367.3,-820.3 820.4,-820.3"
         style="fill:#f99746;fill-opacity:1;fill-rule:nonzero;stroke:none"
         id="path102" /><path
         d="m 21691.2,1656.3 h 6472.1 v 1709.5 h -6489.9 c -432.6,0 -783.2,-350.6 -783.2,-783.2 v -125.3 c 0,-442.4 358.6,-801 801,-801"
         style="fill:#fcecdb;fill-opacity:1;fill-rule:nonzero;stroke:none"
         id="path104" /><path
         d="m 20462.6,1656.3 h 7919.1 c 65.7,0 119,53.2 119,118.9 v 17.8 c 0,65.7 -53.3,118.9 -119,118.9 h -7919.1 c -65.7,0 -119,-53.2 -119,-118.9 v -17.8 c 0,-65.7 53.3,-118.9 119,-118.9"
         style="fill:#f99746;fill-opacity:1;fill-rule:nonzero;stroke:none"
         id="path106" /><path
         d="m 20462.6,3110.2 h 7919.1 c 65.7,0 119,53.2 119,118.9 v 17.8 c 0,65.7 -53.3,118.9 -119,118.9 h -7919.1 c -65.7,0 -119,-53.2 -119,-118.9 v -17.8 c 0,-65.7 53.3,-118.9 119,-118.9"
         style="fill:#f99746;fill-opacity:1;fill-rule:nonzero;stroke:none"
         id="path108" /><path
         d="m 28163.3,2511 -881.8,-28.7 881.8,-17.3 z"
         style="fill:#f4d2b8;fill-opacity:1;fill-rule:nonzero;stroke:none"
         id="path110" /><path
         d="m 28163.3,2904.5 -2097.8,-28.8 2097.8,-17.3 z"
         style="fill:#f4d2b8;fill-opacity:1;fill-rule:nonzero;stroke:none"
         id="path112" /><path
         d="m 26087.1,2881.5 c 0,0 89.9,-73.5 119.7,-194.2 5.2,-21.1 8.6,-43.8 9.3,-67.6 5,-160.4 0,-523.5 0,-523.5 l 265.4,181.6 264.7,-181.6 v 492.1 c 0,93.1 -22.7,183.6 -64.9,242.8 -20.4,28.8 -45.2,50.4 -73.3,50.4 h -520.9"
         style="fill:#699dee;fill-opacity:1;fill-rule:nonzero;stroke:none"
         id="path114" /><path
         d="m 26087.1,2881.5 c 0,0 89.9,-73.5 119.7,-194.2 l 531.9,-7.2 c 0,0 -20.9,172.9 -130.7,201.4 h -520.9"
         style="fill:#568cdb;fill-opacity:1;fill-rule:nonzero;stroke:none"
         id="path116" /><path
         d="m 21260.9,5554.5 h -5589.2 v 2511.7 h 5609.6 c 495.9,0 898,-402 898,-898 v -695.3 c 0,-507.2 -411.2,-918.4 -918.4,-918.4"
         style="fill:#fcecdb;fill-opacity:1;fill-rule:nonzero;stroke:none"
         id="path118" /><path
         d="m 22182.5,7091.7 v -540.6 c -1.4,-230.9 -108.4,-431.2 -265.6,-538.3 -77.4,-52.5 -166.9,-82.6 -262,-82.6 h -6154.5 c -72.1,0 -130.6,-69.8 -130.6,-156 v -63.8 c 0,-86.1 58.5,-155.9 130.6,-155.9 h 10632 c 305.1,0 574.7,181.1 737.5,458.3 102.7,174.7 163,387.4 163,617.1 v 426.5 c 0,157.4 -30.2,306.4 -84,439.2 -136.7,337.7 -426.3,570.6 -761.5,570.6 h -10687 c -72.1,0 -130.6,-69.7 -130.6,-155.9 v -63.7 c 0,-86.2 58.5,-156 130.6,-156 h 6173.3 c 147.6,0 281.1,-75 374.4,-195 82.6,-106.4 133.6,-248 134.4,-403.9"
         style="fill:#afcdfb;fill-opacity:1;fill-rule:nonzero;stroke:none"
         id="path120" /><path
         d="m 15369.8,5774.2 v -63.8 c 0,-86.1 58.5,-155.9 130.6,-155.9 h 10632 c 305.1,0 574.7,181.1 737.5,458.3 h -4953 c -77.4,-52.5 -166.9,-82.6 -262,-82.6 h -6154.5 c -72.1,0 -130.6,-69.8 -130.6,-156"
         style="fill:#a4c4f4;fill-opacity:1;fill-rule:nonzero;stroke:none"
         id="path122" /><path
         d="m 15671.7,6810.4 789,-42.2 -789,-25.5 z"
         style="fill:#f4d2b8;fill-opacity:1;fill-rule:nonzero;stroke:none"
         id="path124" /><path
         d="m 15671.7,7388.4 1877,-42.2 -1877,-25.4 z"
         style="fill:#f4d2b8;fill-opacity:1;fill-rule:nonzero;stroke:none"
         id="path126" /><path
         d="m 17529.4,7354.6 c 0,0 -123.9,-79.7 -164.9,-210.6 -7.3,-22.9 -11.9,-47.4 -12.9,-73.2 -6.8,-174 0,-567.6 0,-567.6 l -365.7,196.8 -364.8,-196.8 v 533.5 c 0,100.9 31.3,199.1 89.4,263.3 28.2,31.2 62.4,54.6 101.1,54.6 h 717.8"
         style="fill:#f99746;fill-opacity:1;fill-rule:nonzero;stroke:none"
         id="path128" /><path
         d="m 17529.4,7354.6 c 0,0 -123.9,-79.7 -164.9,-210.6 l -732.9,-7.8 c 0,0 28.7,187.5 180,218.4 h 717.8"
         style="fill:#ed7d2b;fill-opacity:1;fill-rule:nonzero;stroke:none"
         id="path130" /><path
         d="m 8186.8,5776.7 c 0,0 1145.68,-499.2 1353.64,-490.1 207.96,9.1 1489.46,390.3 1489.46,390.3 l -32.7,-220.4 c 0,0 -988.9,-568.8 -1334.65,-601.1 -340.39,-31.7 -1504.31,305.5 -1616.68,376.7 -112.37,71.2 -185.63,472.5 140.93,544.6"
         style="fill:#ed985f;fill-opacity:1;fill-rule:nonzero;stroke:none"
         id="path132" /><path
         d="m 8014.66,7612.9 c 0,0 -422.65,80.3 -633.14,-73.4 C 7000.21,7261 6979.73,6301 6836.82,6158 c -142.91,-143 -487.4,-82 -518.07,-822 -30.66,-739.9 137.15,-801.8 -62.71,-1132.1 -199.86,-330.3 84.56,-660.9 84.56,-660.9 0,0 -116.5,182.3 -66.57,313.9 0,0 48.49,-290.4 233.02,-358.5 184.53,-68.1 211.83,-118 241.3,-217.9 0,0 1574.26,806.7 1575.97,1378.9 1.72,572.1 309.79,1138.9 158.51,1386.8 0,0 67.38,-106 75.64,-224 0,0 90.77,173.9 -66.57,335.8 -157.33,161.9 184.57,497 133.95,885 -34.76,266.4 -221.69,558.3 -611.19,569.9"
         style="fill:#233862;fill-opacity:1;fill-rule:nonzero;stroke:none"
         id="path134" /><path
         d="m 8326.04,5231.5 c -100.62,-69.8 -226.79,-127.3 -385.17,-163.9 -593.71,-137.2 -821.23,364.6 -906.68,709.1 80.97,46.3 157.15,56.5 201.15,61.8 42.91,5 88.04,8.4 125.41,10.2 66.67,51.1 166.01,260.1 187.98,584.6 l 27.93,-7.5 467.9,-128.1 c 0,0 -21.43,-148.7 -31.94,-289.3 -8.12,-110 -9.4,-215.2 11.44,-240.9 36.51,-7.9 58.43,-13.1 58.43,-13.1 l 0.23,-0.4 c 6.28,-10.3 142.03,-233.6 243.32,-522.5"
         style="fill:#ffb27d;fill-opacity:1;fill-rule:nonzero;stroke:none"
         id="path136" /><path
         d="m 8044.58,6297.6 c 0,0 -21.51,-148.6 -31.93,-289.3 -265.09,26.5 -388.11,278.9 -436,417.4 l 467.93,-128.1"
         style="fill:#ed985f;fill-opacity:1;fill-rule:nonzero;stroke:none"
         id="path138" /><path
         d="m 8123.74,6158 c 0,0 -629.22,34.7 -601.57,426.2 27.65,391.5 -34.93,659.7 367.97,654.1 402.91,-5.6 470.32,-160.5 492.88,-293.5 22.56,-132.9 -94.9,-785.7 -259.28,-786.8"
         style="fill:#ffb27d;fill-opacity:1;fill-rule:nonzero;stroke:none"
         id="path140" /><path
         d="m 8379.95,7163.8 c -88.7,124.8 -163.97,104.2 -207.64,71.7 -329.97,213.5 -571.34,-49.8 -571.34,-49.8 -62.19,-277.9 -276.29,-424.3 -276.29,-424.3 0,0 109.47,-78.9 378.42,-30 82.15,15 158.29,67.2 224.49,132.3 -119.72,-171.5 -274.45,-290.1 -274.45,-290.1 325.9,123.2 484.05,552.8 499.99,598.3 35.9,-37.2 106.15,-117.5 123.95,-192.5 24.17,-101.9 128.48,-261.3 188.79,-258.6 0,0 47.1,256 -85.92,443"
         style="fill:#233862;fill-opacity:1;fill-rule:nonzero;stroke:none"
         id="path142" /><path
         d="m 6854.97,3952.2 c -56.82,290.5 -242.09,1451 -56.82,1824.5 66.54,134.1 327.63,146.2 614.09,134.5 89.14,-57.6 428.8,-275 568.31,-247.9 1.5,0.3 4.21,0.9 7.81,1.8 65.7,16.5 90.5,62.6 35.7,102.4 -0.11,0.1 141.88,13.7 318.07,-19.5 99.52,-18.7 367.93,-157.6 367.93,-157.6 0,0 -135.17,-244.2 -334.48,-328.5 33.89,-303.2 -16.51,-436.9 -331.03,-1137.2 -265.79,-591.9 35.85,-1124.8 35.85,-1124.8 0,0 -1564.56,-1258 -1573.27,-617.5 -6.53,482.2 420.46,1198.6 347.84,1569.8"
         style="fill:#f9ddbf;fill-opacity:1;fill-rule:nonzero;stroke:none"
         id="path144" /><path
         d="m 8157.96,1632 c 85.09,9.6 161.69,56.2 209.26,127.4 7.55,11.3 15.62,23.5 24.19,36.4 178.09,269.6 247.38,1095.3 647.97,1974.9 97.57,214.1 447.81,252.6 543.31,494.7 0,0 235.06,784.6 -449.91,807.8 C 8447.81,5096.3 7298.32,2890 7280.17,2658.6 7262.58,2434.5 6827.31,1481.9 8157.96,1632"
         style="fill:#dd6d22;fill-opacity:1;fill-rule:nonzero;stroke:none"
         id="path146" /><path
         d="m 10880.4,1650.1 h -974.9 c 0,0 -36.45,155.5 27.56,261.3 56.66,93.6 34.94,146.9 -7.02,224.4 44.17,-18.1 101.26,-34.5 164.16,-30.9 48.6,2.8 100,24.8 145,51 42,-47.9 221.7,-251.5 277.8,-291.8 63.7,-45.8 347.8,-29.5 367.4,-214"
         style="fill:#233862;fill-opacity:1;fill-rule:nonzero;stroke:none"
         id="path148" /><path
         d="m 9604.97,4846.3 c 58.71,-440.1 287.95,-1829.2 692.33,-2506.9 130.4,-218.5 -328.46,-341 -330.93,-340.3 -61.55,16.1 -164.07,114.2 -211.33,156.8 -328.31,295.9 -994.79,1133.7 -994.79,1805.4 0,327.5 -5.75,953.1 232.42,1112 146.67,97.9 588.99,-52.1 612.3,-227"
         style="fill:#ed7d2b;fill-opacity:1;fill-rule:nonzero;stroke:none"
         id="path150" /><path
         d="m 7576.61,1650.1 c 0,0 36.13,50.3 99.13,145.7 74.98,113.6 157.94,337.1 258.61,623.6 105.75,300.7 231.2,670.7 387.96,1055.6 48.38,118.9 99.76,239.2 154.4,359.2 97.58,214.2 366,184.6 461.49,426.7 0,0 372.62,839.2 -312.35,862.3 C 7940.88,5146.4 6639.3,2878.3 6564.5,2658.6 6482.62,2418.2 6083.13,1419.7 7576.61,1650.1"
         style="fill:#f99746;fill-opacity:1;fill-rule:nonzero;stroke:none"
         id="path152" /><path
         d="m 10164.8,1650.1 h -974.97 c 0,0 -36.44,155.5 27.56,261.3 56.66,93.6 34.94,146.9 -7.01,224.4 44.16,-18.1 101.29,-34.5 164.2,-30.9 48.57,2.8 99.94,24.8 144.99,51 41.95,-47.9 221.63,-251.5 277.77,-291.8 63.71,-45.8 347.76,-29.5 367.46,-214"
         style="fill:#2b478b;fill-opacity:1;fill-rule:nonzero;stroke:none"
         id="path154" /><path
         d="m 7934.35,2419.4 c 105.75,300.7 231.2,670.7 387.96,1055.6 -40.94,291.7 -129.26,546.9 -277.76,649.7 0,0 -360.28,-1116.1 -110.2,-1705.3"
         style="fill:#ed7d2b;fill-opacity:1;fill-rule:nonzero;stroke:none"
         id="path156" /><path
         d="m 9035.87,4877.5 c 58.71,-440.1 141.39,-1860.4 545.79,-2538.1 130.38,-218.5 -328.48,-341 -330.96,-340.3 -61.54,16.1 -164.07,114.2 -211.32,156.8 -328.32,295.9 -994.8,1133.7 -994.8,1805.4 0,327.5 384.38,926.8 622.53,1085.8 146.68,97.9 345.44,5.3 368.76,-169.6"
         style="fill:#f99746;fill-opacity:1;fill-rule:nonzero;stroke:none"
         id="path158" /><path
         d="m 8241.53,6383.2 c 0,0 -59.48,23.5 -226.87,9.9 0,0 8.89,-65.3 132.34,-71.7 69.92,-3.7 94.53,61.8 94.53,61.8"
         style="fill:#ffffff;fill-opacity:1;fill-rule:nonzero;stroke:none"
         id="path160" /><path
         d="m 11152.1,6138.1 -202.1,364.7 -437.2,-1220.2 257.9,-276.9 381.4,1132.4"
         style="fill:#163560;fill-opacity:1;fill-rule:nonzero;stroke:none"
         id="path162" /><path
         d="m 10096.8,5924.5 -406.49,-1161.2 1080.39,242.4 381.4,1132.4 -1055.3,-213.6"
         style="fill:#1c468a;fill-opacity:1;fill-rule:nonzero;stroke:none"
         id="path164" /><path
         d="m 9711.85,4821.9 -18.93,33.1 384.58,1098.9 19.3,-29.4 -384.95,-1102.6"
         style="fill:#efdece;fill-opacity:1;fill-rule:nonzero;stroke:none"
         id="path166" /><path
         d="m 10077.5,5953.9 1024.3,199.3 50.3,-15.1 -1055.3,-213.6 -19.3,29.4"
         style="fill:#fcecdb;fill-opacity:1;fill-rule:nonzero;stroke:none"
         id="path168" /><path
         d="m 11152.1,6138.1 -218.5,346.9 -139.4,-391.7 307.6,59.9 50.3,-15.1"
         style="fill:#efdece;fill-opacity:1;fill-rule:nonzero;stroke:none"
         id="path170" /><path
         d="m 10408.7,5756.3 c -35.1,6.8 -110.5,35.2 -186.8,56.2 22.8,17.7 48.1,39.4 55.2,61.7 13.6,43 22.7,56.9 -22.7,43.3 -45.4,-13.7 -204.2,-86.5 -204.2,-86.5 l 0.4,-0.2 c -90.2,-26.3 -173.33,-153.9 -173.33,-153.9 0,0 -1117.03,-392.6 -1251.42,-399.4 -207.9,-10.4 -1591.66,499.2 -1591.66,499.2 -326.56,-72.1 -253.3,-473.4 -140.93,-544.6 112.37,-71.2 1108.08,-433.4 1698.18,-440.2 298.89,-3.5 1386.1,695.3 1386.1,695.3 0,0 127.06,58.1 226.96,39.9 99.8,-18.1 331.3,0 381.2,81.7 49.9,81.7 -118,136.2 -177,147.5"
         style="fill:#ffb27d;fill-opacity:1;fill-rule:nonzero;stroke:none"
         id="path172" /><path
         d="m 7747.11,5525.4 c 0,0 -123.76,-391.8 -548.79,-481 0,0 -701.9,216.3 -352.42,694.4 0,0 345.54,256.8 901.21,-213.4"
         style="fill:#f9ddbf;fill-opacity:1;fill-rule:nonzero;stroke:none"
         id="path174" /><path
         d="m 11134,5726.8 h -0.1 c 0.3,10.8 -0.8,21.5 -3.7,31.8 0,0 -100.2,158.4 -133,164.9 -99.8,19.7 -99.8,-111.8 -78.6,-196.7 14.7,-59 52.2,-115.8 82.6,-146.4 v 0 l -4,-123.9 c 168.8,92.7 136.8,270.3 136.8,270.3"
         style="fill:#ffb27d;fill-opacity:1;fill-rule:nonzero;stroke:none"
         id="path176" /><path
         d="m 5269.61,7794.9 c 39.91,987.5 -787.81,1426.2 -1634.13,1426.2 -846.33,0 -1767.34,-219.3 -1847.14,-1532.4 -51.33,-844.8 399,-1364.6 1695.75,-1364.6 437.34,0 777.23,69 1037.57,192 l 648.21,-576 -318.54,796.2 c 282.18,262.4 401.07,632.4 418.28,1058.6"
         style="fill:#ebf3fa;fill-opacity:1;fill-rule:nonzero;stroke:none"
         id="path178" /><path
         d="m 2992.46,8125 v -230.6 h 150.88 V 8125 h 61.46 v -538 h -61.46 v 251.5 H 2992.46 V 7587 H 2931 v 538 h 61.46"
         style="fill:#91b5f8;fill-opacity:1;fill-rule:nonzero;stroke:none"
         id="path180" /><path
         d="m 3457.08,7820.1 c 0.8,76.6 -27.94,111 -57.48,111 -40.71,0 -60.66,-58.3 -63.06,-111 z m -121.33,-45.5 c 0,-118.9 47.09,-143.7 91,-143.7 27.14,0 48.69,6.4 63.86,14.4 l 10.38,-44.7 c -21.56,-11.2 -54.28,-18.4 -85.41,-18.4 -92.61,0 -140.5,75.9 -140.5,194 0,124.5 53.48,202.8 130.92,202.8 78.22,0 110.15,-83.1 110.15,-169.3 0,-15.1 -0.79,-25.5 -1.59,-35.1 h -178.81"
         style="fill:#91b5f8;fill-opacity:1;fill-rule:nonzero;stroke:none"
         id="path182" /><path
         d="m 3582.42,8139.4 h 61.46 V 7587 h -61.46 v 552.4"
         style="fill:#91b5f8;fill-opacity:1;fill-rule:nonzero;stroke:none"
         id="path184" /><path
         d="m 3734.89,8139.4 h 61.46 V 7587 h -61.46 v 552.4"
         style="fill:#91b5f8;fill-opacity:1;fill-rule:nonzero;stroke:none"
         id="path186" /><path
         d="m 3932.07,7780.2 c 0,-63.9 11.18,-150.9 67.06,-150.9 52.69,0 63.86,90.2 63.86,150.9 0,59.1 -11.17,150.1 -65.46,150.1 -55.08,0 -65.46,-91 -65.46,-150.1 z m 192.38,0 c 0,-149.3 -68.65,-199.6 -128.51,-199.6 -69.46,0 -125.33,63.1 -125.33,198.8 0,140.5 63.06,199.6 129.31,199.6 69.46,0 124.53,-64.7 124.53,-198.8"
         style="fill:#91b5f8;fill-opacity:1;fill-rule:nonzero;stroke:none"
         id="path188" /><path
         d="m 22222,10758.6 c 36.5,902.8 -720.2,1303.9 -1493.9,1303.9 -773.8,0 -1615.7,-200.5 -1688.7,-1401 -46.9,-772.3 364.8,-1247.5 1550.3,-1247.5 399.8,0 710.5,63.1 948.5,175.6 l 592.6,-526.6 -291.2,727.8 c 258,239.9 366.7,578.2 382.4,967.8"
         style="fill:#91b5f8;fill-opacity:1;fill-rule:nonzero;stroke:none"
         id="path190" /><path
         d="m 19883.4,10508 c 6,-1.3 14.8,-2.7 26.3,-2.7 53.3,0 88.5,31.8 88.5,90.5 0,62.8 -43.3,92.5 -91.9,93.2 h -22.9 z m 0,220.9 h 23.6 c 42.5,0 79,32.4 79,80.3 0,41.9 -19.6,74.3 -75,74.3 -12.1,0 -21.6,-1.4 -27.6,-3.4 z m -51.4,186.3 c 21.7,5.4 46.6,8.8 75.7,8.8 41.2,0 76.3,-8.8 100.6,-31.7 19.6,-18.3 29.7,-45.3 29.7,-77.7 0,-46.6 -25.7,-83 -70.2,-100.6 v -2 c 52.6,-14.2 84.4,-56.7 84.4,-116.2 0,-37.8 -12.2,-68.2 -32.4,-90.5 -25.7,-29 -68.2,-41.2 -120.2,-41.2 -33.1,0 -53.4,2.1 -67.6,4.8 v 446.3"
         style="fill:#ffffff;fill-opacity:1;fill-rule:nonzero;stroke:none"
         id="path192" /><path
         d="m 20151.4,10630.3 c 0,-54.1 9.5,-127.7 56.8,-127.7 44.5,0 54,76.3 54,127.7 0,49.9 -9.5,126.9 -55.4,126.9 -46.6,0 -55.4,-77 -55.4,-126.9 z m 162.8,0 c 0,-126.3 -58.1,-168.9 -108.7,-168.9 -58.8,0 -106,53.4 -106,168.2 0,118.8 53.3,168.8 109.3,168.8 58.8,0 105.4,-54.7 105.4,-168.1"
         style="fill:#ffffff;fill-opacity:1;fill-rule:nonzero;stroke:none"
         id="path194" /><path
         d="m 20372.3,10709.3 c 0,38.5 -2.1,58 -2.7,84.4 h 45.2 l 2.7,-39.9 h 1.4 c 14.1,26.4 40.5,44.6 74.9,44.6 45.3,0 79,-33.1 79,-112.1 v -219.4 h -52 v 210 c 0,39.1 -7.4,77.6 -45.2,77.6 -21.6,0 -42.6,-18.2 -48.6,-52.7 -2.1,-8.1 -2.7,-18.2 -2.7,-29.7 v -205.2 h -52 v 242.4"
         style="fill:#ffffff;fill-opacity:1;fill-rule:nonzero;stroke:none"
         id="path196" /><path
         d="m 20706.6,10878.1 c 0,-20.3 -12.2,-33.8 -31.1,-33.8 -17.6,0 -30.4,13.5 -30.4,33.8 0,20.2 13.5,33.8 31.1,33.8 18.2,0 30.4,-13.6 30.4,-33.8 z m -116.2,-505.1 c 14.9,4 33.1,9.4 43.9,25.6 11.5,17.6 15.5,41.9 15.5,104 v 291.1 h 52 v -305.9 c 0,-68.9 -10.1,-100.6 -33.1,-124.9 -19.5,-20.3 -51.3,-30.4 -71.6,-31.1 l -6.7,41.2"
         style="fill:#ffffff;fill-opacity:1;fill-rule:nonzero;stroke:none"
         id="path198" /><path
         d="m 20810.5,10630.3 c 0,-54.1 9.5,-127.7 56.8,-127.7 44.5,0 54,76.3 54,127.7 0,49.9 -9.5,126.9 -55.4,126.9 -46.6,0 -55.4,-77 -55.4,-126.9 z m 162.8,0 c 0,-126.3 -58.1,-168.9 -108.7,-168.9 -58.8,0 -106.1,53.4 -106.1,168.2 0,118.8 53.4,168.8 109.4,168.8 58.8,0 105.4,-54.7 105.4,-168.1"
         style="fill:#ffffff;fill-opacity:1;fill-rule:nonzero;stroke:none"
         id="path200" /><path
         d="m 21227.2,10556 c 0,-35.8 2,-64.8 2.7,-89.1 h -45.3 l -4,34.4 h -1.4 c -9.4,-16.2 -34.4,-39.9 -69.5,-39.9 -56.7,0 -79.7,44.6 -79.7,125.7 v 206.6 h 52 v -199.2 c 0,-51.3 8.1,-89.2 43.9,-89.2 30.4,0 43.9,28.4 46.6,43.3 2,8.7 2.7,18.9 2.7,29.7 v 215.4 h 52 V 10556"
         style="fill:#ffffff;fill-opacity:1;fill-rule:nonzero;stroke:none"
         id="path202" /><path
         d="m 21299.5,10709.3 c 0,27.6 -2.1,60.1 -2.7,84.4 h 46.5 l 2.7,-52 h 1.4 c 10.8,31 38.5,56.7 68.9,56.7 4,0 7.4,0 10.8,-0.7 v -52.6 c -3.4,0 -6.8,0 -10.8,0 -33.1,0 -57.4,-30.4 -62.8,-67.6 -1.4,-8.7 -2.1,-18.9 -2.1,-29.7 v -180.9 h -51.9 v 242.4"
         style="fill:#ffffff;fill-opacity:1;fill-rule:nonzero;stroke:none"
         id="path204" /><path
         d="m 21981.2,5995.2 c 183.6,-324.8 416.5,-451.4 416.5,-451.4 l 972.7,-6.8 c 0,0 -1529.3,706 -1389.2,458.2"
         style="fill:#233862;fill-opacity:1;fill-rule:nonzero;stroke:none"
         id="path206" /><path
         d="m 22710.6,3486.8 c 25.1,-29.2 28.1,-61.7 15.3,-96.3 l -0.2,-0.5 c -23.7,-63.9 -100.8,-135 -190.4,-205.8 -11.4,-9.1 -21.6,-17.4 -30.4,-25.1 -2.4,-2 -4.7,-4 -6.9,-6 -1.8,-1.6 -3.5,-3.2 -5.3,-4.7 -83.5,-76 -52.4,-93.7 -202.6,-248 -171.4,-175.7 -288.5,-178.1 -321.7,-161.7 -28,13.9 29.9,107.4 94.1,212.4 3.1,5.1 6.1,10.2 9.3,15.3 8.6,14 17,28.2 25.5,42.2 75.3,126.4 56.6,186.1 40.3,375.2 -13.2,153.6 -232.8,859.3 -232.8,859.3 l 326.3,53.9 c 0,0 94.2,-561.4 201.7,-648.6 57.5,-46.4 122.3,-47.4 177.6,-81.9 3.9,-2.4 7.7,-4.9 11.5,-7.4 31.4,-21.2 63.5,-43 88.7,-72.3"
         style="fill:#ffb27d;fill-opacity:1;fill-rule:nonzero;stroke:none"
         id="path208" /><path
         d="m 22710.6,3486.8 c 25.1,-29.2 28.1,-61.7 15.3,-96.3 l -0.2,-0.5 c -28.9,-63.8 -104.1,-134.5 -190.7,-205.2 -11.3,-9.2 -21.3,-17.7 -30.1,-25.7 -2.4,-2 -4.7,-4 -6.9,-6 -1.8,-1.6 -3.5,-3.2 -5.3,-4.7 -83.5,-76 -52.4,-93.7 -202.6,-248 -171.4,-175.7 -288.5,-178.1 -321.7,-161.7 -28,13.9 29.9,107.4 94.1,212.4 33.2,11.9 187.4,73.3 304.7,221.2 103.3,130 172.8,297.4 243.2,394.2 3.9,-2.4 7.7,-4.9 11.5,-7.4 31.4,-21.2 63.5,-43 88.7,-72.3"
         style="fill:#233862;fill-opacity:1;fill-rule:nonzero;stroke:none"
         id="path210" /><path
         d="m 20084.1,3708.9 c -20.8,-100.5 -164.1,-82.7 -324,-42.4 -159.9,40.3 -122.2,-6.5 -350,20.3 -227.8,26.9 -296.3,112.4 -303,146.3 -6,30.1 106.7,40 227.6,53 15.3,1.6 30.5,3.4 45.8,5.2 136.6,16.1 237.1,103.5 361.5,174.9 117.9,67.6 295.1,345.4 295.1,345.4 l 312.5,-26.9 c 0,0 -165.9,-248.1 -230.1,-356 -37.8,-63.5 -36.4,-147.8 -32.2,-212.9 2.2,-35.4 4.2,-71.5 -3.2,-106.9"
         style="fill:#ffb27d;fill-opacity:1;fill-rule:nonzero;stroke:none"
         id="path212" /><path
         d="m 19760.1,3666.5 c -159.9,40.3 -122.2,-6.5 -350,20.3 -227.8,26.9 -296.3,112.4 -303,146.3 -6,30.1 106.7,40 227.6,53 l 1.2,-2.3 c 0,0 136,-97.9 325.8,-103.8 154.6,-4.9 318.8,38.3 425.6,35.8 2.2,-35.4 4.2,-71.5 -3.2,-106.9 -20.8,-100.5 -164.1,-82.7 -324,-42.4"
         style="fill:#233862;fill-opacity:1;fill-rule:nonzero;stroke:none"
         id="path214" /><path
         d="m 21296.6,5699.8 286.7,-788.6 374.4,-1029.7 c 0,0 103.5,-10.7 202.9,17.1 91.5,25.7 196.7,94 196.7,94 0,0 -98.2,1103.5 -291.4,1737.9 -49.5,162.9 -105.3,294.7 -167.5,369.1 -303.9,364.3 -601.8,-399.8 -601.8,-399.8"
         style="fill:#233862;fill-opacity:1;fill-rule:nonzero;stroke:none"
         id="path216" /><path
         d="m 21602.6,6946.9 c 191.9,60.4 737.5,-22.7 1285.4,-134 l 116.3,188.6 1185.7,84.2 c 0,0 384.9,-869.9 167,-1421 -32.1,-81 -110.2,-114.7 -216.8,-115.7 l -0.1,-0.1 c 0,0 -707.3,-12.3 -936.4,-10.7 -589.3,4.2 -1244.4,413.9 -1329.4,431.6 -139.1,28.8 -196.8,-249.4 -338.2,-541 -141.3,-291.6 -1318.6,-1286.3 -1318.6,-1286.3 0,0 -179.9,-0.6 -254,27.8 -79.7,30.6 -108.6,69.7 -108.6,69.7 0,0 1314.8,2570.6 1747.7,2706.9"
         style="fill:#2b478b;fill-opacity:1;fill-rule:nonzero;stroke:none"
         id="path218" /><path
         d="m 23022.7,8633.5 c 420.4,-235.3 1273.1,-723 1277.6,-720 0,0 313.8,-120.8 493.2,-3.5 298.9,195.5 462.2,726.2 -78.7,1187.7 -269.8,230.2 -462.2,287.1 -488.9,651.8 -14.5,197.8 -280.2,852.3 -729.7,795.1 -37.5,-4.8 -75.4,-8.2 -113.2,-6.7 -52.4,2.1 -139.1,-4.9 -228.3,-57.2 -255.2,-149.5 -764,-1752.8 -132,-1847.2"
         style="fill:#233862;fill-opacity:1;fill-rule:nonzero;stroke:none"
         id="path220" /><path
         d="m 23377.8,8828.8 c -1.8,-1.2 207.2,-74.2 347.7,-13.1 132.2,57.3 233.5,273.4 231.6,273.5 -60,3.2 -125.4,56.1 -173.6,400.4 l -25.6,-9 -430.3,-151.4 c 0,0 30.1,-138 49.3,-269.2 16.1,-110.2 24.5,-215.8 0.9,-231.2"
         style="fill:#ffb27d;fill-opacity:1;fill-rule:nonzero;stroke:none"
         id="path222" /><path
         d="m 23327.6,9329.2 c 0,0 18.3,-96.7 43.8,-234.9 246.8,42.7 350.8,253.2 386.5,386.3 l -430.3,-151.4"
         style="fill:#ed975d;fill-opacity:1;fill-rule:nonzero;stroke:none"
         id="path224" /><path
         d="m 23262.7,9192.9 c 0,0 587.8,74.7 535.6,440 -52.1,365.4 -11.4,621 -388.8,588.8 -377.5,-32.2 -430.4,-182 -442.7,-308.2 -12.2,-126.2 141.6,-730.6 295.9,-720.6"
         style="fill:#ffb27d;fill-opacity:1;fill-rule:nonzero;stroke:none"
         id="path226" /><path
         d="m 22989.7,10113.4 c 0,0 373.6,-326.6 629.1,-354.5 255.5,-27.9 352.9,53.5 352.9,53.5 0,0 -149.8,126.2 -239.1,328.7 -26.3,59.8 -82.5,101 -147.5,107.1 -182.5,17 -528.5,26.7 -595.4,-134.8"
         style="fill:#233862;fill-opacity:1;fill-rule:nonzero;stroke:none"
         id="path228" /><path
         d="m 23224.9,10140.8 c 0,0 -126.7,-120.7 -166.9,-210.7 -38.8,-86.7 -51.8,-294.8 -21.9,-377.7 0,0 -193.3,382.4 -81,566.7 119,195.5 269.8,21.7 269.8,21.7"
         style="fill:#233862;fill-opacity:1;fill-rule:nonzero;stroke:none"
         id="path230" /><path
         d="m 22877.3,7967.3 c 9.3,-1188.8 -1.8,-940.4 127.4,-1054.1 31.2,-27.4 119.1,-44.2 235,-52.6 364.3,-26.8 1005.5,28.7 1030.3,95.9 85.8,232.5 26.9,305.3 99.6,661.7 7.5,37.9 16.9,78.9 27.8,123.5 60.2,244.7 117.8,327.7 -87,722.9 -185.6,358 -379,648.8 -396.7,638.5 -498.5,-291.2 -536.8,-43.2 -536.8,-43.2 0,0 -504.3,-512.8 -499.6,-1092.6"
         style="fill:#f9ddbf;fill-opacity:1;fill-rule:nonzero;stroke:none"
         id="path232" /><path
         d="m 21583.3,4911.2 374.4,-1029.7 c 0,0 103.5,-10.7 202.9,17.1 91.5,25.7 196.7,94 196.7,94 0,0 -98.2,1103.5 -291.4,1737.9 l -482.6,-819.3"
         style="fill:#2b478b;fill-opacity:1;fill-rule:nonzero;stroke:none"
         id="path234" /><path
         d="m 23376.9,9060 c 0,0 -511.4,-83 -573,-302.5 -61.5,-219.6 -423.6,-1510 -423.6,-1510 0,0 259.3,-48.5 380.1,70.6 120.9,119.1 425.3,1110.1 425.3,1110.1 l 191.2,631.8"
         style="fill:#f9ddbf;fill-opacity:1;fill-rule:nonzero;stroke:none"
         id="path236" /><path
         d="m 23239.7,6860.6 c 364.3,-26.8 1005.5,28.7 1030.3,95.9 85.8,232.5 26.9,305.3 99.6,661.7 l -172.3,496.3 c 0,0 25.1,-551.5 -138.5,-695.4 -163.4,-143.8 -667.6,-275.2 -747.4,-395.8 -38.6,-57.8 -64.1,-116 -71.7,-162.7"
         style="fill:#f2ccaa;fill-opacity:1;fill-rule:nonzero;stroke:none"
         id="path238" /><path
         d="m 23659,7089.5 c 0,0 -359.1,82.6 -417.3,51.1 -58.3,-31.5 -200.9,-146.7 -218.9,-187.1 -18.1,-40.3 129.4,29.8 177.2,42.3 31.1,8.1 112.3,-20.8 152.6,-34.5 169.3,-57.8 273.5,-29.4 273.5,-29.4 l 32.9,157.6"
         style="fill:#ffb27d;fill-opacity:1;fill-rule:nonzero;stroke:none"
         id="path240" /><path
         d="m 23914,9103.4 c 0,0 482.6,-33.2 648.1,-267.5 233,-329.8 689.9,-1731.7 421.1,-1916.3 -302.7,-208 -1371.5,-45.3 -1371.5,-45.3 0,0 -34.4,166.6 15.7,246.8 50.1,80.1 856,204.5 893.4,241.4 37.4,36.8 -459.3,727.7 -458.5,839.1 0.8,111.5 -148.3,901.8 -148.3,901.8"
         style="fill:#f9ddbf;fill-opacity:1;fill-rule:nonzero;stroke:none"
         id="path242" /><path
         d="m 23223.6,7040.6 c 0,0 -76.1,-96.6 -100.8,-108.1 -24.8,-11.4 -40.8,-8.4 -40.8,-8.4 l 51.5,91 90.1,25.5"
         style="fill:#ffb27d;fill-opacity:1;fill-rule:nonzero;stroke:none"
         id="path244" /><path
         d="m 23241.7,7140.6 -219.8,-104.9 c 0,0 9.2,-15.3 36.2,-14.2 26.9,1 95.2,25.4 95.2,25.4 l 88.4,93.7"
         style="fill:#ffb27d;fill-opacity:1;fill-rule:nonzero;stroke:none"
         id="path246" /><path
         d="m 23169.6,6775.7 -1732.8,12.2 -512.1,1299.9 1730.1,-12.2 514.8,-1299.9"
         style="fill:#f99746;fill-opacity:1;fill-rule:nonzero;stroke:none"
         id="path248" /><path
         d="m 21416.8,6838.5 2288.3,-16.1 -0.4,-50.5 -2267.9,16 -20,50.6"
         style="fill:#ed7d2b;fill-opacity:1;fill-rule:nonzero;stroke:none"
         id="path250" /><path
         d="m 21878.8,7432.9 c -12.8,45.7 13.9,82.4 59.4,82.1 45.6,-0.3 92.9,-37.6 105.6,-83.2 12.7,-45.7 -13.9,-82.5 -59.4,-82.1 -45.6,0.3 -92.9,37.6 -105.6,83.2"
         style="fill:#ffffff;fill-opacity:1;fill-rule:nonzero;stroke:none"
         id="path252" /><path
         d="m 17903.6,2684.2 -0.2,-1046.7 -5264.9,1.1 0.2,1046.6 5264.9,-1"
         style="fill:#c65447;fill-opacity:1;fill-rule:nonzero;stroke:none"
         id="path254" /><path
         d="m 12638.4,1638.5 -773.8,331 -450,192.6 460.6,196.8 763.5,326.3 c 0,0 101.9,-254.8 103.4,-494.5 2.4,-376.1 -103.7,-552.2 -103.7,-552.2"
         style="fill:#fcecdb;fill-opacity:1;fill-rule:nonzero;stroke:none"
         id="path256" /><path
         d="M 18515.6,2336.9 V 2006 c -0.1,-203.6 -165.1,-368.5 -368.6,-368.5 h -243.6 l 0.2,1046.7 264.9,-0.1 c 191.8,0 347.2,-155.5 347.1,-347.2"
         style="fill:#fcecdb;fill-opacity:1;fill-rule:nonzero;stroke:none"
         id="path258" /><path
         d="m 11875.2,2358.9 c 19.2,-105.7 35.8,-267.7 -10.6,-389.4 l -450,192.6 460.6,196.8"
         style="fill:#2b478b;fill-opacity:1;fill-rule:nonzero;stroke:none"
         id="path260" /><path
         d="m 13770.4,8134.8 c 0,0 94.3,-409.2 369.2,-409.2 235.7,0 558.9,532.7 558.9,532.7 l -928.1,-123.5"
         style="fill:#f99746;fill-opacity:1;fill-rule:nonzero;stroke:none"
         id="path262" /><path
         d="m 16926.5,2090.9 -176.6,-121.5 c 0,0 -849.4,905.4 -1054.5,1773.3 -36.5,154.9 -51.3,307.7 -35.7,452.7 0,0 -12.4,39.3 -34.1,108.8 -0.9,3.1 -1.9,6.2 -2.9,9.3 -9.5,30.5 -20.8,66.4 -33.5,107 -41.2,131.1 -97.8,310.6 -162.2,514.9 -148.5,470.2 -488,1530.5 -633.1,1971.6 l 1042.8,377.3 c 0,0 118.5,-270.1 288.7,-1004.2 26.2,-95.8 52.4,-201.8 77,-317.2 27.8,-130.8 53.7,-273.8 75.3,-428.3 36.6,-261.6 61,-556 62.5,-879 0.6,-131.3 -2.6,-267.6 -10.4,-408.1 -5.7,-103 9.6,-240.4 38.4,-396.6 131.3,-714.2 558.3,-1760 558.3,-1760"
         style="fill:#2b478b;fill-opacity:1;fill-rule:nonzero;stroke:none"
         id="path264" /><path
         d="M 17482.1,1654.6 H 16639 c 0,0 -31.5,134.4 23.8,225.9 49,81 30.3,127.1 -6,194.1 38.2,-15.6 87.6,-29.9 142,-26.7 42,2.4 86.4,21.4 125.4,44.1 36.2,-41.4 191.6,-217.5 240.2,-252.4 55.1,-39.6 300.7,-25.5 317.7,-185"
         style="fill:#233862;fill-opacity:1;fill-rule:nonzero;stroke:none"
         id="path266" /><path
         d="m 16277.7,5534.6 -655,-1221.1 c -9.5,30.5 -20.8,66.4 -33.5,107 -41.2,131.1 -97.8,310.6 -162.2,514.9 -148.5,470.2 -488,1530.5 -633.1,1971.6 l 1042.8,377.3 c 0,0 118.5,-270.1 288.7,-1004.2 26.2,-95.8 52.4,-201.8 77,-317.2 27.8,-130.8 53.7,-273.8 75.3,-428.3"
         style="fill:#233862;fill-opacity:1;fill-rule:nonzero;stroke:none"
         id="path268" /><path
         d="m 14776.9,1918.5 c 0,0 -58.3,-143.2 -3.4,-263.9 h 458.6 c 0,0 9.5,108.8 -156.9,235.1 -126,95.6 -298.3,28.8 -298.3,28.8"
         style="fill:#233862;fill-opacity:1;fill-rule:nonzero;stroke:none"
         id="path270" /><path
         d="m 15276,11240.1 c 0.3,22.9 12,269 386,290.9 0,0 -183.5,-26.4 -213.4,-108.1 0,0 122.9,103 225.7,73.3 102.9,-29.7 167.1,-207 169.2,-265.8 2,-58.8 -50.2,-249.8 -114.5,-267.5 -24.4,-6.7 -52.7,-5.7 -78.5,-2 17.9,-26.5 35.5,-55.7 52.4,-88.5 156.8,-303 21.6,-659.9 -105.7,-629.8 -81.6,19.3 -131.2,-122.2 -131.2,-122.2 l -784.8,674.9 c 0,0 275,605.7 594.8,444.8"
         style="fill:#2c3a64;fill-opacity:1;fill-rule:nonzero;stroke:none"
         id="path272" /><path
         d="m 14782.7,9189.5 c 87,-60.4 196.1,-110.2 333,-141.8 513.5,-118.6 710.2,315.3 784.1,613.2 -70,40 -135.9,48.9 -173.9,53.4 -37.1,4.4 -76.2,7.3 -108.5,8.9 -57.6,44.1 -143.6,224.9 -162.5,505.5 l -24.2,-6.5 -404.6,-110.8 c 0,0 18.5,-128.6 27.6,-250.2 7,-95.1 8.1,-186 -9.9,-208.3 -31.6,-6.8 -50.5,-11.3 -50.5,-11.3 l -0.2,-0.4 c -5.5,-8.9 -122.8,-201.9 -210.4,-451.7"
         style="fill:#ffb27d;fill-opacity:1;fill-rule:nonzero;stroke:none"
         id="path274" /><path
         d="m 15026.1,10111.4 c 0,0 18.6,-128.5 27.6,-250.2 229.2,22.9 335.6,241.2 377,360.9 l -404.6,-110.7"
         style="fill:#ed985f;fill-opacity:1;fill-rule:nonzero;stroke:none"
         id="path276" /><path
         d="m 15021.4,9918.3 c 0,0 527.8,135.7 438.2,463 -89.5,327.4 -81.7,565.4 -422.4,492.7 -340.8,-72.8 -371.8,-215.5 -368.5,-332.1 3.3,-116.5 213.1,-650.4 352.7,-623.6"
         style="fill:#ffb27d;fill-opacity:1;fill-rule:nonzero;stroke:none"
         id="path278" /><path
         d="m 14634.3,10728.2 c 54.2,120.7 121.5,116 164,95.8 243.8,236.8 493,54.2 493,54.2 99.6,-225.2 305.9,-313.2 305.9,-313.2 0,0 -79.5,-85.5 -315.9,-89.3 -72.2,-1.2 -145.5,30.2 -212.7,74.3 130.5,-125.3 281.7,-199.8 281.7,-199.8 -297.2,49.5 -503.8,387.2 -525,423.1 -24.1,-37.6 -70.2,-117.6 -72.6,-184.2 -3.3,-90.5 32,-265.3 -19.6,-273.2 0,0 -180,231.2 -98.8,412.3"
         style="fill:#2c3a64;fill-opacity:1;fill-rule:nonzero;stroke:none"
         id="path280" /><path
         d="m 14869.6,9668.9 c 0,0 886.4,215.2 1271.8,-102.7 l -192.6,-2686.4 -1733.6,418.9 c 0,0 48.8,169.9 381.2,621.9 332.4,452.1 187.8,1115.1 273.2,1748.3"
         style="fill:#ffb27d;fill-opacity:1;fill-rule:nonzero;stroke:none"
         id="path282" /><path
         d="m 15386.3,7178.9 c 0,0 -1,-9.1 -2.8,-26.5 -0.8,-7.4 -1.8,-16.5 -2.9,-27 -7.5,-69.6 -21.6,-203.2 -39.8,-376.9 -47.6,-455.6 -122.2,-1187.3 -173.1,-1764.9 -39.8,-451.6 -65.1,-809 -51.4,-866.4 41,-172.7 0,-2237.1 0,-2237.1 -147.4,-70.7 -370.8,0 -370.8,0 0,0 -392.4,1860.3 -337.5,2118.9 54.9,258.6 -36.7,479.3 -36.7,479.3 -304.8,1419.1 -271.4,2205.7 -210.9,2582.2 17.6,109.5 37.5,184.3 52.1,229.9 12.4,38.8 20.9,56.5 20.9,56.5 672.2,180.9 1152.9,-168 1152.9,-168"
         style="fill:#2b478b;fill-opacity:1;fill-rule:nonzero;stroke:none"
         id="path284" /><path
         d="m 16260.9,8800 c -42.8,-323.2 -214,-718.7 -275.1,-931.5 0,0 102.2,-739.1 4.6,-942 -11.1,-23.1 -24.8,-39.3 -41.6,-46.6 -361.5,-157.5 -1769.2,-4.6 -1828.6,449.5 -21.6,165 536.2,745.4 568.7,815.8 13.5,29.2 27.8,123.6 -37.6,319.3 -92.7,-285.8 -604.3,-203.6 -604.3,-203.6 60,102.7 209.7,813.6 376.7,1134.5 125.6,241.2 460.9,276.1 460.9,276.1 0,0 139.6,-221.3 477.1,-189.9 337.6,31.4 399.3,238 399.3,238 0,0 299.3,-39.8 391.6,-114.2 16,-12.9 164.4,-382 108.3,-805.4"
         style="fill:#f99746;fill-opacity:1;fill-rule:nonzero;stroke:none"
         id="path286" /><path
         d="m 15985.8,7868.5 c 0,0 102.2,-739.1 4.6,-942 -263.3,132.2 -470.9,489.8 -423,888.2 35.4,294.4 88.1,361.6 245.6,530.1 115.8,123.8 383.4,130.8 362.4,71.9 -62.4,-175.4 -157.3,-435.8 -189.6,-548.2"
         style="fill:#ed7d2b;fill-opacity:1;fill-rule:nonzero;stroke:none"
         id="path288" /><path
         d="m 14886.4,8742.4 603.6,-968.3 h -1027 l -575.1,947.4 998.5,20.9"
         style="fill:#1c468a;fill-opacity:1;fill-rule:nonzero;stroke:none"
         id="path290" /><path
         d="m 15458.6,7822.7 10.4,33.8 -571.1,916.4 -11.5,-30.5 572.2,-919.7"
         style="fill:#efdece;fill-opacity:1;fill-rule:nonzero;stroke:none"
         id="path292" /><path
         d="m 14897.9,8772.9 -967.5,-27.5 -42.5,-23.9 998.5,20.9 11.5,30.5"
         style="fill:#fcecdb;fill-opacity:1;fill-rule:nonzero;stroke:none"
         id="path294" /><path
         d="m 13887.9,8721.5 -542.8,293.8 632.7,-993.6 485.2,-247.6 -575.1,947.4"
         style="fill:#163560;fill-opacity:1;fill-rule:nonzero;stroke:none"
         id="path296" /><path
         d="m 16760.1,8042.9 c -58.1,-26.6 -207.3,-202.3 -260.6,-220.2 -239.5,-80.1 -1258.7,133.1 -1258.7,133.1 l 31.6,178.5 c 0,0 1000.3,-26.5 1110.3,2.9 20.7,5.6 128.8,174.6 170.4,198.9 l 207,-293.2"
         style="fill:#ffb27d;fill-opacity:1;fill-rule:nonzero;stroke:none"
         id="path298" /><path
         d="m 15272.4,8134.4 c 0,0 -120.6,98.1 -202.1,75.9 -81.5,-22.2 -201.5,-125.3 -246,-149.7 -44.5,-24.4 -165.5,-111.7 -104.2,-164.5 61.3,-52.8 252.2,-7.4 327.9,33 75.6,40.5 192.9,26.7 192.9,26.7 l 31.5,178.6"
         style="fill:#ffb27d;fill-opacity:1;fill-rule:nonzero;stroke:none"
         id="path300" /><path
         d="m 15093.4,8213.5 c 0,0 -146.6,17.5 -186.7,16.7 -40,-0.8 -29.1,-9.6 -7,-40.6 22.1,-31.1 98.4,-43 101.9,-53.9 3.5,-10.8 91.8,77.8 91.8,77.8"
         style="fill:#ffb27d;fill-opacity:1;fill-rule:nonzero;stroke:none"
         id="path302" /><path
         d="m 15761,9719.6 c 0,0 434.8,-51.6 554.5,-238 151.3,-235.8 508.5,-1174.6 497,-1411.2 0,0 -261.2,-444.5 -1156.7,-373.3 0,0 -93.2,329.1 95.2,437.7 0,0 460,81.8 512.9,128.5 l -375,681.5 -127.9,774.8"
         style="fill:#f99746;fill-opacity:1;fill-rule:nonzero;stroke:none"
         id="path304" /><path
         d="m 14027,8367.5 c -13.5,54.8 -132.9,20.6 -173.2,-11 -9.8,-7.6 -20.3,-20.7 -30.6,-35.9 -1.3,9.1 -2.4,17.9 -3,24.7 -2.2,25.8 -32.2,71.9 -39.6,37.4 -7.5,-34.6 -19.7,-179.5 -19.7,-179.5 -1.5,-116.8 73.6,-165 121.8,-127 48.2,38 157.7,236.5 144.3,291.3"
         style="fill:#ffb27d;fill-opacity:1;fill-rule:nonzero;stroke:none"
         id="path306" /><path
         d="M 29985.4,1561.3 H 2601.14 c -19.4,0 -35.28,15.8 -35.28,35.2 v 23.1 c 0,19.5 15.88,35.3 35.28,35.3 H 29985.4 c 19.4,0 35.3,-15.8 35.3,-35.3 v -23.1 c 0,-19.4 -15.9,-35.2 -35.3,-35.2"
         style="fill:#2e3552;fill-opacity:1;fill-rule:nonzero;stroke:none"
         id="path308" /></g></g></svg>
